<?xml version="1.0" standalone="no"?>
<!DOCTYPE svg PUBLIC "-//W3C//DTD SVG 20010904//EN"
 "http://www.w3.org/TR/2001/REC-SVG-20010904/DTD/svg10.dtd">
<svg version="1.0" xmlns="http://www.w3.org/2000/svg"
 width="414.000000pt" height="414.000000pt" viewBox="0 0 414.000000 414.000000"
 preserveAspectRatio="xMidYMid meet">
<metadata>
Created by potrace 1.11, written by Peter Selinger 2001-2013
</metadata>
<g transform="translate(0.000000,414.000000) scale(0.100000,-0.100000)"
fill="#000000" stroke="none">
<path d="M1775 3733 c-67 -5 -205 -35 -205 -44 0 -5 -15 -9 -32 -9 -33 0 -129
-28 -203 -60 -39 -17 -77 -36 -234 -117 -41 -21 -99 -62 -130 -90 -30 -29 -57
-53 -59 -53 -2 0 -34 -25 -73 -56 -58 -48 -229 -232 -229 -248 0 -3 -10 -16
-23 -29 -57 -62 -171 -263 -198 -347 -4 -14 -17 -50 -29 -80 -23 -57 -32 -93
-74 -275 -31 -136 -42 -325 -26 -450 16 -129 71 -371 104 -463 21 -55 93 -199
118 -235 22 -31 18 -57 -9 -58 -10 0 -31 -16 -47 -35 -27 -33 -28 -35 -11 -54
10 -11 34 -24 54 -31 20 -6 45 -17 56 -23 11 -7 41 -18 68 -26 26 -7 50 -17
53 -21 3 -5 12 -9 20 -9 8 0 36 -10 62 -21 26 -12 66 -30 89 -40 24 -11 52
-19 62 -19 11 0 23 -5 26 -10 3 -6 13 -10 21 -10 11 0 14 16 14 69 0 38 -4 71
-8 73 -5 2 -19 93 -33 202 -28 229 -31 235 -97 191 -24 -15 -45 -25 -49 -21
-24 24 -87 252 -118 426 -44 253 -30 459 49 717 34 110 182 368 227 396 10 6
19 16 19 22 0 12 131 145 143 145 4 0 18 9 30 21 55 52 176 129 302 191 33 16
68 34 77 39 10 5 24 9 32 9 8 0 27 6 43 14 123 61 504 97 693 65 30 -5 81 -12
113 -15 l57 -7 0 34 c0 36 -25 115 -42 136 -5 6 -8 22 -6 34 2 18 16 27 76 45
69 21 112 46 112 66 0 4 -7 8 -15 8 -8 0 -15 4 -15 9 0 5 -21 11 -47 14 -27 3
-95 13 -153 21 -96 14 -428 20 -555 9z"/>
<path d="M3010 3591 c0 -5 -33 -12 -72 -15 -160 -12 -366 -38 -405 -50 -13 -4
-23 -11 -23 -16 0 -16 43 -84 79 -126 20 -23 56 -69 81 -103 80 -109 149 -205
174 -241 13 -19 36 -46 50 -60 32 -29 56 -20 71 28 5 18 14 32 21 32 7 0 56
-51 111 -112 127 -146 148 -176 222 -318 54 -106 82 -175 137 -335 37 -108 38
-113 38 -260 0 -226 -27 -374 -101 -545 -77 -176 -107 -221 -225 -337 -76 -76
-194 -173 -210 -173 -3 0 -44 -22 -90 -48 -116 -67 -202 -100 -388 -149 -135
-35 -385 -21 -482 28 -47 23 -168 136 -168 156 0 7 -4 13 -10 13 -21 0 -11
142 14 211 32 88 53 123 166 273 52 70 112 157 134 194 21 37 47 82 57 100 12
21 19 52 19 86 0 69 -26 96 -91 96 -40 0 -56 -8 -125 -58 -235 -173 -455 -462
-521 -684 -34 -111 -25 -305 16 -387 41 -81 52 -99 66 -111 8 -7 15 -19 15
-26 0 -8 6 -14 13 -14 8 0 24 -12 38 -26 30 -33 114 -96 154 -116 98 -50 366
-98 547 -98 96 0 439 65 473 90 6 4 48 21 95 39 112 43 271 123 340 171 113
79 326 315 437 485 112 173 193 450 208 719 8 136 -15 378 -46 489 -11 37 -28
100 -39 140 -30 107 -101 249 -199 402 -79 123 -271 333 -389 424 -39 30 -42
37 -36 65 3 17 12 38 19 46 23 27 45 79 45 105 l0 25 -110 0 c-60 0 -110 -4
-110 -9z"/>
<path d="M2219 2463 c-72 -65 -97 -142 -63 -193 28 -41 87 -101 116 -116 36
-19 127 -18 166 1 17 9 44 32 61 51 28 32 31 41 31 106 l0 71 -47 47 c-52 52
-97 70 -175 70 -41 0 -54 -5 -89 -37z"/>
</g>
</svg>
